<?xml version="1.0" encoding="UTF-8"?>
<svg xmlns="http://www.w3.org/2000/svg" id="Layer_1" data-name="Layer 1" viewBox="0 0 24 24" width="512" height="512">
  
  <path d="M15.56,4.15l-.72-.7,3.36-3.45h.8V11h-1V1.64l-2.44,2.51Z" fill="#ffb81c" stroke="#ffb81c" stroke-width="1"/>
  
  <path d="M7.2,13l-3.36,3.45,.72,.7,2.44-2.51v9.36h1V13h-.8Z" fill="#ffb81c" stroke="#ffb81c" stroke-width="1"/>
  
  <path d="M12,7c0,2.21-1.79,4-4,4s-4-1.79-4-4v-3C4,1.79,5.79,0,8,0s4,1.79,4,4v3Z m-1-3c0-1.65-1.35-3-3-3s-3,1.35-3,3v3c0,1.65,1.35,3,3,3s3-1.35,3-3v-3Z" fill="#f4f4f4" stroke="#f4f4f4" stroke-width="1" />
  
  <path d="M20,17v3c0,2.21-1.79,4-4,4s-4-1.79-4-4v-3c0-2.21,1.79-4,4-4s4,1.79,4,4Z m-1,0c0-1.65-1.35-3-3-3s-3,1.35-3,3v3c0,1.65,1.35,3,3,3s3-1.35,3-3v-3Z" fill="#f4f4f4" stroke="#f4f4f4" stroke-width="1" />

</svg>
